<svg id="Layer_1" data-name="Layer 1" xmlns="http://www.w3.org/2000/svg" xmlns:xlink="http://www.w3.org/1999/xlink" viewBox="0 0 95.887 185.928"><defs><style>.cls-1{fill:url(#linear-gradient);}.cls-2{fill:url(#linear-gradient-2);}</style><linearGradient id="linear-gradient" x1="112.106" y1="158.9" x2="57.376" y2="62.497" gradientUnits="userSpaceOnUse"><stop offset="0" stop-color="#ed9027" stop-opacity="0.8"/><stop offset="0.609" stop-color="#ed9027" stop-opacity="0.362"/><stop offset="1" stop-color="#ed9027" stop-opacity="0.1"/></linearGradient><linearGradient id="linear-gradient-2" x1="-4.372" y1="159.278" x2="39.53" y2="81.199" xlink:href="#linear-gradient"/></defs><title>aio_introduce4</title><path class="cls-1" d="M56.982,31.338a5.394,5.394,0,0,1-3.146.75l-.051,0,.047,0V191.422a3.833,3.833,0,0,0,2.1-.636l44.6-25.747c.83-.458,1.23-.862,1.23-1.418V5.5Z" transform="translate(-5.867 -5.494)"/><path class="cls-2" d="M53.739,32.086a6.927,6.927,0,0,1-.794-.031l-.049-.008a6.375,6.375,0,0,1-.752-.125c-.161-.038-.315-.095-.471-.145-.1-.032-.2-.054-.292-.09a6.025,6.025,0,0,1-.725-.337L5.867,5.494V163.619a1.479,1.479,0,0,0,.868,1.211L51.7,190.789a3.5,3.5,0,0,0,2.033.626c.019,0,.038.007.057.007V32.088Z" transform="translate(-5.867 -5.494)"/></svg>