<svg id="Layer_1" data-name="Layer 1" xmlns="http://www.w3.org/2000/svg" xmlns:xlink="http://www.w3.org/1999/xlink" viewBox="0 0 34.531 79.632"><defs><style>.cls-1,.cls-5{opacity:0.8;}.cls-2{fill:#7da4d0;stroke:#efeeef;stroke-miterlimit:10;stroke-width:0.476px;}.cls-3{fill:#9ad0e1;opacity:0.7;}.cls-4{opacity:0.5;fill:url(#linear-gradient);}.cls-5,.cls-6{fill:#c5dde7;}</style><linearGradient id="linear-gradient" x1="-175.784" y1="26.481" x2="-158.036" y2="37.071" gradientTransform="matrix(-0.958, -0.095, -0.012, 1.043, -138.485, -4.633)" gradientUnits="userSpaceOnUse"><stop offset="0" stop-color="#b4d073"/><stop offset="0.08" stop-color="#bbbe6e"/><stop offset="0.246" stop-color="#c89d64"/><stop offset="0.418" stop-color="#d2845d"/><stop offset="0.597" stop-color="#d97258"/><stop offset="0.785" stop-color="#de6755"/><stop offset="1" stop-color="#df6454"/></linearGradient></defs><title>aio_introduce3</title><g class="cls-1"><path class="cls-2" d="M34.495,7.784c2.433-1.4,4.429-.266,4.437,2.529l.151,53.32a9.75,9.75,0,0,1-4.408,7.636L9.618,85.736c-2.433,1.4-4.43.267-4.438-2.529l-.151-53.32a9.753,9.753,0,0,1,4.409-7.636Z" transform="translate(-4.791 -6.944)"/></g><polygon class="cls-3" points="7.381 25.913 29.509 13.138 29.509 38.645 7.42 51.399 7.381 25.913"/><path class="cls-4" d="M32.7,43.512l-.4.146a.566.566,0,0,1-.887-.323l-2.55-8.1c-.291-.925-1.531-.237-1.806,1l-1.713,7.733a2.051,2.051,0,0,1-.919,1.325l-.391.206a.564.564,0,0,1-.864-.259l-.524-1.293c-.324-.8-1.442-.186-1.758.968h0A2.034,2.034,0,0,1,20,46.14l-.341.179a.568.568,0,0,1-.9-.351l-.471-1.686c-.266-.952-1.51-.3-1.807.941l-1.708,7.148a2.04,2.04,0,0,1-.926,1.3l-.789.387Z" transform="translate(-4.791 -6.944)"/><path class="cls-5" d="M11.281,63.7l11.013-6.359c.446-.258.808-.049.808.466v.046a1.785,1.785,0,0,1-.808,1.4L11.281,65.606c-.446.257-.808.049-.808-.466v-.046A1.783,1.783,0,0,1,11.281,63.7Z" transform="translate(-4.791 -6.944)"/><path class="cls-5" d="M25.433,55.526l9.49-5.48c.446-.258.808-.048.808.467v.045a1.784,1.784,0,0,1-.808,1.4l-9.49,5.479c-.446.258-.808.049-.808-.466v-.045A1.787,1.787,0,0,1,25.433,55.526Z" transform="translate(-4.791 -6.944)"/><g class="cls-1"><path class="cls-6" d="M11.281,72.684l11.013-6.359c.446-.257.808-.048.808.467v.045a1.787,1.787,0,0,1-.808,1.4L11.281,74.6c-.446.257-.808.049-.808-.466v-.046A1.787,1.787,0,0,1,11.281,72.684Z" transform="translate(-4.791 -6.944)"/><path class="cls-6" d="M25.433,64.515l9.49-5.481c.446-.257.808-.049.808.467v.045a1.787,1.787,0,0,1-.808,1.4l-9.49,5.479c-.446.258-.808.049-.808-.466v-.045A1.784,1.784,0,0,1,25.433,64.515Z" transform="translate(-4.791 -6.944)"/></g><g class="cls-1"><path class="cls-6" d="M11.281,68.19l5.962-3.443c.446-.257.808-.048.808.467v.046a1.787,1.787,0,0,1-.808,1.4L11.281,70.1c-.446.257-.808.048-.808-.467v-.046A1.785,1.785,0,0,1,11.281,68.19Z" transform="translate(-4.791 -6.944)"/><path class="cls-6" d="M19.92,63.2l5.057-2.936c.445-.258.807-.05.807.465v.046a1.792,1.792,0,0,1-.807,1.4L19.92,65.112c-.446.259-.807.051-.807-.464V64.6A1.791,1.791,0,0,1,19.92,63.2Z" transform="translate(-4.791 -6.944)"/><path class="cls-6" d="M27.844,58.606l7.078-4.068c.447-.256.809-.046.809.469v.046a1.78,1.78,0,0,1-.809,1.4l-7.078,4.066c-.447.257-.809.047-.809-.468V60A1.777,1.777,0,0,1,27.844,58.606Z" transform="translate(-4.791 -6.944)"/></g><g class="cls-1"><path class="cls-6" d="M11.281,77.228l9.606-5.536c.446-.257.808-.048.808.468v.045a1.784,1.784,0,0,1-.808,1.4l-9.606,5.535c-.446.257-.808.048-.808-.467v-.045A1.784,1.784,0,0,1,11.281,77.228Z" transform="translate(-4.791 -6.944)"/><path class="cls-6" d="M23.564,70.147l5.057-2.936c.446-.259.807-.051.807.465v.045a1.789,1.789,0,0,1-.807,1.4l-5.057,2.936c-.446.259-.807.051-.807-.464v-.046A1.791,1.791,0,0,1,23.564,70.147Z" transform="translate(-4.791 -6.944)"/><path class="cls-6" d="M31.488,65.551l3.434-1.974c.447-.257.809-.048.809.468v.045a1.782,1.782,0,0,1-.809,1.4l-3.434,1.974c-.447.256-.808.047-.808-.468v-.046A1.78,1.78,0,0,1,31.488,65.551Z" transform="translate(-4.791 -6.944)"/></g></svg>