<svg id="Layer_1" data-name="Layer 1" xmlns="http://www.w3.org/2000/svg" viewBox="0 0 133.154 153.757"><defs><style>.cls-1{opacity:0.7;}.cls-2{fill:#edbdd4;}.cls-3{fill:#f5d3dc;}.cls-4{fill:#f2c6d2;}.cls-5{fill:#fff;}.cls-6{fill:#627fb8;}.cls-7{fill:#778ebc;}.cls-8{fill:#6489bf;}.cls-9{fill:#c0e0e6;}.cls-10{fill:#efec9a;}.cls-11{fill:#f2f0b2;}.cls-12{fill:#f4f2be;}.cls-13{fill:#78bfb9;}.cls-14{fill:#85c5c0;}.cls-15{fill:#add7d3;}</style></defs><title>log_5</title><g class="cls-1"><polygon class="cls-2" points="90.787 87.362 114.99 101.362 114.996 24.483 90.787 10.486 90.787 87.362"/><polygon class="cls-3" points="114.99 101.362 133.154 90.875 133.148 14 114.996 24.483 114.99 101.362"/><polygon class="cls-4" points="133.148 14 108.938 0 90.787 10.486 114.996 24.483 133.148 14"/><path class="cls-5" d="M120.153,102.994a6.071,6.071,0,0,1-.305-2.4l.007-2.4.014-4.8.027-9.61.054-19.22L120,45.335l.155-19.22.152,19.22.051,19.219.051,19.22.026,9.61.013,4.8.006,2.4A6.053,6.053,0,0,1,120.153,102.994Z" transform="translate(-5.163 -1.632)"/><path class="cls-5" d="M138.31,15.632a.632.632,0,0,1-.414.592l-.569.325-1.138.649-2.276,1.3-4.559,2.585c-3.05,1.7-6.1,3.4-9.2,5.034,2.96-1.86,5.956-3.658,8.956-5.449l4.517-2.656,2.262-1.323,1.131-.662.565-.33A.632.632,0,0,1,138.31,15.632Z" transform="translate(-5.163 -1.632)"/></g><g class="cls-1"><polygon class="cls-6" points="60.524 104.775 84.728 118.813 84.735 52.354 60.526 38.32 60.524 104.775"/><polygon class="cls-7" points="84.728 118.813 102.891 108.326 102.885 41.87 84.735 52.354 84.728 118.813"/><polygon class="cls-8" points="102.885 41.87 78.677 27.833 60.526 38.32 84.735 52.354 102.885 41.87"/><path class="cls-9" d="M89.89,120.445a4.6,4.6,0,0,1-.305-2.077l.007-2.077.014-4.153.027-8.308.055-16.614L89.743,70.6,89.9,53.986,90.049,70.6,90.1,87.216l.051,16.614.025,8.308.013,4.153.007,2.077A4.587,4.587,0,0,1,89.89,120.445Z" transform="translate(-5.163 -1.632)"/><path class="cls-9" d="M108.048,43.5a.634.634,0,0,1-.415.593l-.569.324-1.138.649-2.275,1.3-4.559,2.585c-3.05,1.7-6.1,3.4-9.194,5.035,2.959-1.86,5.955-3.658,8.955-5.449l4.517-2.657,2.261-1.323,1.131-.661.565-.331A.633.633,0,0,1,108.048,43.5Z" transform="translate(-5.163 -1.632)"/></g><g class="cls-1"><polygon class="cls-10" points="30.261 122.302 54.466 136.283 54.472 87.363 30.263 73.386 30.261 122.302"/><polygon class="cls-11" points="54.466 136.283 72.629 125.797 72.622 76.88 54.472 87.363 54.466 136.283"/><polygon class="cls-12" points="72.622 76.88 48.414 62.899 30.263 73.386 54.472 87.363 72.622 76.88"/><path class="cls-5" d="M59.629,137.915a2.586,2.586,0,0,1-.306-1.529l0-1.529.007-3.057.015-6.115.043-12.23.088-12.23L59.635,89l.152,12.23.084,12.23.04,12.23.014,6.115.006,3.057,0,1.529A2.586,2.586,0,0,1,59.629,137.915Z" transform="translate(-5.163 -1.632)"/><path class="cls-5" d="M77.785,78.512a.634.634,0,0,1-.414.592l-.569.325-1.138.649-2.276,1.3L68.83,83.961c-3.051,1.7-6.1,3.4-9.195,5.034,2.959-1.86,5.955-3.658,8.955-5.449l4.517-2.657,2.261-1.322,1.131-.662.566-.33A.631.631,0,0,1,77.785,78.512Z" transform="translate(-5.163 -1.632)"/></g><g class="cls-1"><polygon class="cls-13" points="0 139.779 24.249 153.757 24.255 118.812 0 104.838 0 139.779"/><polygon class="cls-14" points="24.249 153.757 42.413 143.27 42.407 108.328 24.255 118.812 24.249 153.757"/><polygon class="cls-15" points="42.407 108.328 18.151 94.351 0 104.838 24.255 118.812 42.407 108.328"/><path class="cls-5" d="M29.412,155.389a1.42,1.42,0,0,1-.306-1.092l0-1.092.008-2.184.015-4.368.043-8.736.087-8.737.155-8.736.152,8.737.085,8.736.039,8.736.014,4.368.007,2.184,0,1.092A1.416,1.416,0,0,1,29.412,155.389Z" transform="translate(-5.163 -1.632)"/><path class="cls-5" d="M47.57,109.96a.634.634,0,0,1-.415.593l-.569.324-1.138.649-2.276,1.3-4.558,2.586c-3.051,1.7-6.1,3.4-9.2,5.034,2.96-1.86,5.956-3.658,8.956-5.449l4.517-2.657,2.262-1.323,1.131-.661.565-.331A.635.635,0,0,1,47.57,109.96Z" transform="translate(-5.163 -1.632)"/></g></svg>