<svg id="Layer_1" data-name="Layer 1" xmlns="http://www.w3.org/2000/svg" viewBox="0 0 32.049 78.9"><defs><style>.cls-1{fill:#78bfb9;}.cls-1,.cls-3,.cls-4{opacity:0.8;}.cls-2{fill:none;stroke:#e6f2f0;stroke-linecap:round;stroke-miterlimit:10;stroke-width:0.476px;}.cls-3,.cls-5{fill:#dcdcdc;}.cls-6{fill:#efd4b1;}.cls-7{fill:#dfaab1;}.cls-8{fill:#e5c0c8;}.cls-9{fill:#f1c6d9;}.cls-10{fill:#799bcb;}.cls-11{fill:#83a5d0;}.cls-12{fill:#94b7dc;}</style></defs><title>aio_introduce2</title><path class="cls-1" d="M6.466,25.889V83.2c0,1.287.9,1.809,2.019,1.165l27.534-15.9a4.464,4.464,0,0,0,2.019-3.5V7.661c0-1.288-.9-1.81-2.019-1.166L8.485,22.392A4.461,4.461,0,0,0,6.466,25.889Z" transform="translate(-6.228 -5.981)"/><path class="cls-2" d="M6.466,25.889V83.2c0,1.287.9,1.809,2.019,1.165l27.534-15.9a4.464,4.464,0,0,0,2.019-3.5V7.661c0-1.288-.9-1.81-2.019-1.166L8.485,22.392A4.461,4.461,0,0,0,6.466,25.889Z" transform="translate(-6.228 -5.981)"/><path class="cls-3" d="M10.431,60.538l11.014-6.359c.446-.258.807-.049.807.466v.046a1.784,1.784,0,0,1-.807,1.4L10.431,62.448c-.446.257-.807.049-.807-.466v-.046A1.782,1.782,0,0,1,10.431,60.538Z" transform="translate(-6.228 -5.981)"/><path class="cls-3" d="M24.583,52.368l9.491-5.48c.446-.258.807-.048.807.467V47.4a1.783,1.783,0,0,1-.807,1.4l-9.491,5.479c-.446.258-.807.049-.807-.466v-.045A1.786,1.786,0,0,1,24.583,52.368Z" transform="translate(-6.228 -5.981)"/><g class="cls-4"><path class="cls-5" d="M10.431,69.526l11.014-6.359c.446-.257.807-.048.807.467v.046a1.786,1.786,0,0,1-.807,1.4L10.431,71.437c-.446.257-.807.049-.807-.466v-.046A1.786,1.786,0,0,1,10.431,69.526Z" transform="translate(-6.228 -5.981)"/><path class="cls-5" d="M24.583,61.357l9.491-5.481c.446-.257.807-.048.807.467v.045a1.786,1.786,0,0,1-.807,1.4l-9.491,5.479c-.446.258-.807.049-.807-.466v-.045A1.783,1.783,0,0,1,24.583,61.357Z" transform="translate(-6.228 -5.981)"/></g><g class="cls-4"><path class="cls-5" d="M10.431,65.032l5.963-3.443c.446-.257.807-.048.807.467V62.1a1.786,1.786,0,0,1-.807,1.4l-5.963,3.442c-.446.257-.807.048-.807-.467V66.43A1.784,1.784,0,0,1,10.431,65.032Z" transform="translate(-6.228 -5.981)"/><path class="cls-5" d="M19.07,60.043l5.058-2.936c.445-.258.806-.05.806.465v.046a1.791,1.791,0,0,1-.806,1.4L19.07,61.954c-.445.259-.806.051-.806-.464v-.045A1.793,1.793,0,0,1,19.07,60.043Z" transform="translate(-6.228 -5.981)"/><path class="cls-5" d="M27,55.448l7.078-4.068c.446-.256.808-.046.808.469V51.9a1.782,1.782,0,0,1-.808,1.4L27,57.358c-.447.257-.809.047-.809-.468v-.046A1.777,1.777,0,0,1,27,55.448Z" transform="translate(-6.228 -5.981)"/></g><g class="cls-4"><path class="cls-5" d="M10.432,74.07l9.606-5.536c.446-.257.807-.048.807.468v.045a1.783,1.783,0,0,1-.807,1.4l-9.606,5.535c-.446.257-.808.048-.808-.467v-.045A1.784,1.784,0,0,1,10.432,74.07Z" transform="translate(-6.228 -5.981)"/><path class="cls-5" d="M22.715,66.989l5.057-2.936c.445-.259.806-.051.806.465v.045a1.791,1.791,0,0,1-.806,1.4L22.715,68.9c-.446.259-.807.051-.807-.464V68.39A1.791,1.791,0,0,1,22.715,66.989Z" transform="translate(-6.228 -5.981)"/><path class="cls-5" d="M30.639,62.394l3.434-1.975c.447-.257.808-.048.808.468v.045a1.783,1.783,0,0,1-.808,1.4L30.639,64.3c-.447.256-.809.047-.809-.468V63.79A1.778,1.778,0,0,1,30.639,62.394Z" transform="translate(-6.228 -5.981)"/></g><polygon class="cls-6" points="5.506 48.792 27.596 36.037 27.596 10.531 5.468 23.306 5.506 48.792"/><polygon class="cls-7" points="20.648 33.48 23.961 35.396 23.962 24.874 20.648 22.958 20.648 33.48"/><polygon class="cls-8" points="23.961 35.396 26.447 33.961 26.446 23.439 23.962 24.874 23.961 35.396"/><polygon class="cls-9" points="26.446 23.439 23.132 21.523 20.648 22.958 23.962 24.874 26.446 23.439"/><polygon class="cls-10" points="16.506 35.863 19.819 37.784 19.82 28.688 16.506 26.767 16.506 35.863"/><polygon class="cls-11" points="19.819 37.784 22.305 36.349 22.304 27.253 19.82 28.688 19.819 37.784"/><polygon class="cls-12" points="22.304 27.253 18.991 25.332 16.506 26.767 19.82 28.688 22.304 27.253"/><polygon class="cls-10" points="12.364 38.262 15.677 40.175 15.678 33.48 12.364 31.567 12.364 38.262"/><polygon class="cls-11" points="15.677 40.175 18.163 38.74 18.162 32.045 15.678 33.48 15.677 40.175"/><polygon class="cls-12" points="18.162 32.045 14.849 30.132 12.364 31.567 15.678 33.48 18.162 32.045"/><polygon class="cls-10" points="8.222 40.654 11.541 42.567 11.542 37.784 8.222 35.871 8.222 40.654"/><polygon class="cls-11" points="11.541 42.567 14.027 41.132 14.026 36.349 11.542 37.784 11.541 42.567"/><polygon class="cls-12" points="14.026 36.349 10.707 34.436 8.222 35.871 11.542 37.784 14.026 36.349"/></svg>