<svg id="Layer_1" data-name="Layer 1" xmlns="http://www.w3.org/2000/svg" viewBox="0 0 56.693 79.409"><defs><style>.cls-1{opacity:0.7;}.cls-2{fill:#78bfb9;}.cls-3{fill:#85c5c0;}.cls-4{fill:#add7d3;}.cls-5{fill:#fff;}</style></defs><title>log_1</title><g class="cls-1"><polygon class="cls-2" points="0 60.723 32.414 79.409 32.422 32.697 0 14.017 0 60.723"/><polygon class="cls-3" points="32.414 79.409 56.693 65.391 56.686 18.683 32.422 32.697 32.414 79.409"/><polygon class="cls-4" points="56.686 18.683 24.263 0 0 14.017 32.422 32.697 56.686 18.683"/><path class="cls-5" d="M47.277,88.183a2.376,2.376,0,0,1-.306-1.46l0-1.46.007-2.919L47,76.505l.044-11.678.088-11.678.155-11.678.152,11.678.084,11.678.039,11.678.014,5.839.006,2.919,0,1.46A2.376,2.376,0,0,1,47.277,88.183Z" transform="translate(-14.862 -8.774)"/><path class="cls-5" d="M71.548,27.457a.983.983,0,0,1-.606.7l-.76.435-1.52.869-3.04,1.74-6.086,3.467L53.427,38.1l-6.143,3.371,5.99-3.636L59.3,34.257l6.045-3.54,3.026-1.764,1.513-.882.756-.441A.982.982,0,0,1,71.548,27.457Z" transform="translate(-14.862 -8.774)"/></g></svg>