<svg id="Layer_1" data-name="Layer 1" xmlns="http://www.w3.org/2000/svg" viewBox="0 0 56.632 135.491"><defs><style>.cls-1{opacity:0.7;}.cls-2{fill:#edbdd4;}.cls-3{fill:#f5d3dc;}.cls-4{fill:#f2c6d2;}.cls-5{fill:#fff;}</style></defs><title>log_4</title><g class="cls-1"><polygon class="cls-2" points="0 116.777 32.353 135.491 32.361 32.727 0 14.017 0 116.777"/><polygon class="cls-3" points="32.353 135.491 56.632 121.474 56.624 18.714 32.361 32.727 32.353 135.491"/><polygon class="cls-4" points="56.624 18.714 24.263 0 0 14.017 32.361 32.727 56.624 18.714"/><path class="cls-5" d="M44.548,137.415a10.649,10.649,0,0,1-.3-3.211l.007-3.212.014-6.422.027-12.846.055-25.691L44.4,60.342l.156-25.691.151,25.691.051,25.691.051,25.691.025,12.846.013,6.422.006,3.212A10.681,10.681,0,0,1,44.548,137.415Z" transform="translate(-12.195 -1.924)"/><path class="cls-5" d="M68.819,20.638a.983.983,0,0,1-.606.7l-.76.435-1.52.869-3.04,1.74-6.086,3.467L50.7,31.281l-6.142,3.37,5.989-3.636,6.022-3.578L62.612,23.9l3.026-1.764,1.513-.882.757-.441A.98.98,0,0,1,68.819,20.638Z" transform="translate(-12.195 -1.924)"/></g></svg>