<svg id="Layer_1" data-name="Layer 1" xmlns="http://www.w3.org/2000/svg" viewBox="0 0 56.632 121.614"><defs><style>.cls-1{opacity:0.7;}.cls-2{fill:#627fb8;}.cls-3{fill:#778ebc;}.cls-4{fill:#6489bf;}.cls-5{fill:#c0e0e6;}</style></defs><title>log_3</title><g class="cls-1"><polygon class="cls-2" points="0 102.849 32.353 121.614 32.363 32.778 0.002 14.018 0 102.849"/><polygon class="cls-3" points="32.353 121.614 56.632 107.596 56.624 18.763 32.363 32.778 32.353 121.614"/><polygon class="cls-4" points="56.624 18.763 24.265 0 0.002 14.018 32.363 32.778 56.624 18.763"/><path class="cls-5" d="M43.548,124.987a8.01,8.01,0,0,1-.3-2.776l.007-2.776.014-5.552.027-11.1.055-22.209L43.4,58.36l.155-22.209.151,22.209.051,22.209.05,22.209.025,11.1.013,5.552.006,2.776A8.034,8.034,0,0,1,43.548,124.987Z" transform="translate(-11.195 -3.373)"/><path class="cls-5" d="M67.819,22.137a.983.983,0,0,1-.606.7l-.759.435-1.52.869-3.04,1.74-6.086,3.467L49.7,32.78l-6.142,3.371,5.989-3.636,6.022-3.578,6.045-3.54,3.025-1.764,1.513-.882.756-.441A.982.982,0,0,1,67.819,22.137Z" transform="translate(-11.195 -3.373)"/></g></svg>