<svg id="Layer_1" data-name="Layer 1" xmlns="http://www.w3.org/2000/svg" viewBox="0 0 80.286 83.737"><defs><style>.cls-1{fill:#fbecb8;opacity:0.5;}.cls-2{fill:#fbecb9;opacity:0.494;}.cls-3{fill:#fbecba;opacity:0.487;}.cls-4{fill:#fbecbb;opacity:0.481;}.cls-5{fill:#fbecbc;opacity:0.474;}.cls-6{fill:#fbecbd;opacity:0.468;}.cls-7{fill:#fbecbe;opacity:0.462;}.cls-8{fill:#fbedbe;opacity:0.455;}.cls-9{fill:#fbedbf;opacity:0.449;}.cls-10{fill:#fbedc0;opacity:0.442;}.cls-11{fill:#fbedc1;opacity:0.436;}.cls-12{fill:#fbedc2;opacity:0.429;}.cls-13{fill:#faedc3;opacity:0.423;}.cls-14{fill:#faeec3;opacity:0.417;}.cls-15{fill:#faeec4;opacity:0.41;}.cls-16{fill:#faeec5;opacity:0.404;}.cls-17{fill:#faeec6;opacity:0.397;}.cls-18{fill:#faeec7;opacity:0.391;}.cls-19{fill:#faeec8;opacity:0.385;}.cls-20{fill:#faeec9;opacity:0.378;}.cls-21{fill:#faefc9;opacity:0.372;}.cls-22{fill:#faefca;opacity:0.365;}.cls-23{fill:#faefcb;opacity:0.359;}.cls-24{fill:#faefcc;opacity:0.353;}.cls-25,.cls-26{fill:#faefcd;}.cls-25{opacity:0.346;}.cls-26{opacity:0.34;}.cls-27{fill:#faf0ce;opacity:0.333;}.cls-28{fill:#faf0cf;opacity:0.327;}.cls-29{fill:#faf0d0;opacity:0.321;}.cls-30{fill:#faf0d1;opacity:0.314;}.cls-31,.cls-32{fill:#faf0d2;}.cls-31{opacity:0.308;}.cls-32{opacity:0.301;}.cls-33{fill:#faf0d3;opacity:0.295;}.cls-34{fill:#faf1d4;opacity:0.288;}.cls-35{fill:#faf1d5;opacity:0.282;}.cls-36{fill:#faf1d6;opacity:0.276;}.cls-37{fill:#f9f1d6;opacity:0.269;}.cls-38{fill:#f9f1d7;opacity:0.263;}.cls-39{fill:#f9f1d8;opacity:0.256;}.cls-40{fill:#f9f1d9;opacity:0.25;}.cls-41,.cls-42{fill:#f9f2da;}.cls-41{opacity:0.244;}.cls-42{opacity:0.237;}.cls-43{fill:#f9f2db;opacity:0.231;}.cls-44{fill:#f9f2dc;opacity:0.224;}.cls-45{fill:#f9f2dd;opacity:0.218;}.cls-46{fill:#f9f2de;opacity:0.212;}.cls-47{fill:#f9f3de;opacity:0.205;}.cls-48{fill:#f9f3df;opacity:0.199;}.cls-49{fill:#f9f3e0;opacity:0.192;}.cls-50{fill:#f9f3e1;opacity:0.186;}.cls-51,.cls-52{fill:#f9f3e2;}.cls-51{opacity:0.179;}.cls-52{opacity:0.173;}.cls-53{fill:#f9f3e3;opacity:0.167;}.cls-54{fill:#f9f4e4;opacity:0.16;}.cls-55,.cls-56{fill:#f9f4e5;}.cls-55{opacity:0.154;}.cls-56{opacity:0.147;}.cls-57{fill:#f9f4e6;opacity:0.141;}.cls-58{fill:#f8f4e7;opacity:0.135;}.cls-59{fill:#f8f4e8;opacity:0.128;}.cls-60,.cls-61{fill:#f8f5e9;}.cls-60{opacity:0.122;}.cls-61{opacity:0.115;}.cls-62{fill:#f8f5ea;opacity:0.109;}.cls-63{fill:#f8f5eb;opacity:0.103;}.cls-64,.cls-65{fill:#f8f5ec;}.cls-64{opacity:0.096;}.cls-65{opacity:0.09;}.cls-66{fill:#f8f5ed;opacity:0.083;}.cls-67{fill:#f8f6ee;opacity:0.077;}.cls-68,.cls-69{fill:#f8f6ef;}.cls-68{opacity:0.071;}.cls-69{opacity:0.064;}.cls-70{fill:#f8f6f0;opacity:0.058;}.cls-71{fill:#f8f6f1;opacity:0.051;}.cls-72{fill:#f8f6f2;opacity:0.045;}.cls-73{fill:#f8f6f3;opacity:0.038;}.cls-74{fill:#f8f7f3;opacity:0.032;}.cls-75{fill:#f8f7f4;opacity:0.026;}.cls-76{fill:#f8f7f5;opacity:0.019;}.cls-77,.cls-78{fill:#f7f7f6;}.cls-77{opacity:0.013;}.cls-78{opacity:0.006;}.cls-79{fill:#f7f7f7;opacity:0;}</style></defs><title>smartship_light</title><ellipse class="cls-1" cx="40.143" cy="80.777" rx="7.074" ry="2.96"/><ellipse class="cls-2" cx="40.143" cy="79.934" rx="7.498" ry="3.115"/><ellipse class="cls-3" cx="40.143" cy="79.092" rx="7.922" ry="3.27"/><ellipse class="cls-4" cx="40.143" cy="78.249" rx="8.346" ry="3.425"/><ellipse class="cls-5" cx="40.143" cy="77.406" rx="8.77" ry="3.58"/><ellipse class="cls-6" cx="40.143" cy="76.564" rx="9.194" ry="3.735"/><ellipse class="cls-7" cx="40.143" cy="75.721" rx="9.618" ry="3.89"/><ellipse class="cls-8" cx="40.143" cy="74.878" rx="10.042" ry="4.045"/><ellipse class="cls-9" cx="40.143" cy="74.036" rx="10.466" ry="4.2"/><ellipse class="cls-10" cx="40.143" cy="73.193" rx="10.89" ry="4.355"/><ellipse class="cls-11" cx="40.143" cy="72.35" rx="11.314" ry="4.51"/><ellipse class="cls-12" cx="40.143" cy="71.508" rx="11.738" ry="4.665"/><ellipse class="cls-13" cx="40.143" cy="70.665" rx="12.162" ry="4.82"/><ellipse class="cls-14" cx="40.143" cy="69.822" rx="12.586" ry="4.975"/><ellipse class="cls-15" cx="40.143" cy="68.98" rx="13.01" ry="5.13"/><ellipse class="cls-16" cx="40.143" cy="68.137" rx="13.434" ry="5.285"/><ellipse class="cls-17" cx="40.143" cy="67.295" rx="13.858" ry="5.44"/><ellipse class="cls-18" cx="40.143" cy="66.452" rx="14.282" ry="5.595"/><ellipse class="cls-19" cx="40.143" cy="65.609" rx="14.705" ry="5.75"/><ellipse class="cls-20" cx="40.143" cy="64.767" rx="15.129" ry="5.905"/><ellipse class="cls-21" cx="40.143" cy="63.924" rx="15.553" ry="6.06"/><ellipse class="cls-22" cx="40.143" cy="63.081" rx="15.977" ry="6.215"/><ellipse class="cls-23" cx="40.143" cy="62.239" rx="16.401" ry="6.37"/><ellipse class="cls-24" cx="40.143" cy="61.396" rx="16.825" ry="6.525"/><ellipse class="cls-25" cx="40.143" cy="60.553" rx="17.249" ry="6.68"/><ellipse class="cls-26" cx="40.143" cy="59.711" rx="17.673" ry="6.835"/><ellipse class="cls-27" cx="40.143" cy="58.868" rx="18.097" ry="6.99"/><ellipse class="cls-28" cx="40.143" cy="58.025" rx="18.521" ry="7.145"/><ellipse class="cls-29" cx="40.143" cy="57.183" rx="18.945" ry="7.3"/><ellipse class="cls-30" cx="40.143" cy="56.34" rx="19.369" ry="7.455"/><ellipse class="cls-31" cx="40.143" cy="55.498" rx="19.793" ry="7.61"/><ellipse class="cls-32" cx="40.143" cy="54.655" rx="20.217" ry="7.765"/><ellipse class="cls-33" cx="40.143" cy="53.812" rx="20.641" ry="7.92"/><ellipse class="cls-34" cx="40.143" cy="52.97" rx="21.065" ry="8.075"/><ellipse class="cls-35" cx="40.143" cy="52.127" rx="21.489" ry="8.23"/><ellipse class="cls-36" cx="40.143" cy="51.284" rx="21.913" ry="8.385"/><ellipse class="cls-37" cx="40.143" cy="50.442" rx="22.337" ry="8.54"/><ellipse class="cls-38" cx="40.143" cy="49.599" rx="22.761" ry="8.695"/><ellipse class="cls-39" cx="40.143" cy="48.756" rx="23.185" ry="8.85"/><ellipse class="cls-40" cx="40.143" cy="47.914" rx="23.609" ry="9.005"/><ellipse class="cls-41" cx="40.143" cy="47.071" rx="24.033" ry="9.16"/><ellipse class="cls-42" cx="40.143" cy="46.228" rx="24.457" ry="9.315"/><ellipse class="cls-43" cx="40.143" cy="45.386" rx="24.881" ry="9.47"/><ellipse class="cls-44" cx="40.143" cy="44.543" rx="25.305" ry="9.625"/><ellipse class="cls-45" cx="40.143" cy="43.7" rx="25.728" ry="9.78"/><ellipse class="cls-46" cx="40.143" cy="42.858" rx="26.152" ry="9.935"/><ellipse class="cls-47" cx="40.143" cy="42.015" rx="26.576" ry="10.09"/><ellipse class="cls-48" cx="40.143" cy="41.173" rx="27" ry="10.245"/><ellipse class="cls-49" cx="40.143" cy="40.33" rx="27.424" ry="10.4"/><ellipse class="cls-50" cx="40.143" cy="39.487" rx="27.848" ry="10.555"/><ellipse class="cls-51" cx="40.143" cy="38.645" rx="28.272" ry="10.71"/><ellipse class="cls-52" cx="40.143" cy="37.802" rx="28.696" ry="10.865"/><ellipse class="cls-53" cx="40.143" cy="36.959" rx="29.12" ry="11.02"/><ellipse class="cls-54" cx="40.143" cy="36.117" rx="29.544" ry="11.175"/><ellipse class="cls-55" cx="40.143" cy="35.274" rx="29.968" ry="11.33"/><ellipse class="cls-56" cx="40.143" cy="34.431" rx="30.392" ry="11.485"/><ellipse class="cls-57" cx="40.143" cy="33.589" rx="30.816" ry="11.64"/><ellipse class="cls-58" cx="40.143" cy="32.746" rx="31.24" ry="11.795"/><ellipse class="cls-59" cx="40.143" cy="31.903" rx="31.664" ry="11.95"/><ellipse class="cls-60" cx="40.143" cy="31.061" rx="32.088" ry="12.105"/><ellipse class="cls-61" cx="40.143" cy="30.218" rx="32.512" ry="12.26"/><ellipse class="cls-62" cx="40.143" cy="29.376" rx="32.936" ry="12.415"/><ellipse class="cls-63" cx="40.143" cy="28.533" rx="33.36" ry="12.57"/><ellipse class="cls-64" cx="40.143" cy="27.69" rx="33.784" ry="12.725"/><ellipse class="cls-65" cx="40.143" cy="26.848" rx="34.208" ry="12.88"/><ellipse class="cls-66" cx="40.143" cy="26.005" rx="34.632" ry="13.035"/><ellipse class="cls-67" cx="40.143" cy="25.162" rx="35.056" ry="13.19"/><ellipse class="cls-68" cx="40.143" cy="24.32" rx="35.48" ry="13.345"/><ellipse class="cls-69" cx="40.143" cy="23.477" rx="35.904" ry="13.5"/><ellipse class="cls-70" cx="40.143" cy="22.634" rx="36.328" ry="13.655"/><ellipse class="cls-71" cx="40.143" cy="21.792" rx="36.751" ry="13.81"/><ellipse class="cls-72" cx="40.143" cy="20.949" rx="37.175" ry="13.965"/><ellipse class="cls-73" cx="40.143" cy="20.106" rx="37.599" ry="14.12"/><ellipse class="cls-74" cx="40.143" cy="19.264" rx="38.023" ry="14.275"/><ellipse class="cls-75" cx="40.143" cy="18.421" rx="38.447" ry="14.431"/><ellipse class="cls-76" cx="40.143" cy="17.578" rx="38.871" ry="14.586"/><ellipse class="cls-77" cx="40.143" cy="16.736" rx="39.295" ry="14.741"/><ellipse class="cls-78" cx="40.143" cy="15.893" rx="39.719" ry="14.896"/><ellipse class="cls-79" cx="40.143" cy="15.051" rx="40.143" ry="15.051"/></svg>