<svg id="Layer_1" data-name="Layer 1" xmlns="http://www.w3.org/2000/svg" viewBox="0 0 56.634 98.093"><defs><style>.cls-1{opacity:0.7;}.cls-2{fill:#efec9a;}.cls-3{fill:#f2f0b2;}.cls-4{fill:#f4f2be;}.cls-5{fill:#fff;}</style></defs><title>log_2</title><g class="cls-1"><polygon class="cls-2" points="0 79.405 32.355 98.093 32.363 32.701 0.002 14.018 0 79.405"/><polygon class="cls-3" points="32.355 98.093 56.634 84.076 56.624 18.688 32.363 32.701 32.355 98.093"/><polygon class="cls-4" points="56.624 18.688 24.265 0 0.002 14.018 32.363 32.701 56.624 18.688"/><path class="cls-5" d="M48.527,102.12a4.444,4.444,0,0,1-.3-2.043l.007-2.044.014-4.087.027-8.174.055-16.347.055-16.348.155-16.348.151,16.348.051,16.348.051,16.347.026,8.174.012,4.087.007,2.044A4.445,4.445,0,0,1,48.527,102.12Z" transform="translate(-16.172 -4.028)"/><path class="cls-5" d="M72.8,22.716a.976.976,0,0,1-.605.7l-.76.435-1.52.87-3.039,1.739L60.785,29.93l-6.108,3.428-6.142,3.371,5.989-3.636,6.022-3.578,6.045-3.539,3.025-1.764,1.513-.882.756-.441A.981.981,0,0,1,72.8,22.716Z" transform="translate(-16.172 -4.028)"/></g></svg>