<svg id="Layer_1" data-name="Layer 1" xmlns="http://www.w3.org/2000/svg" viewBox="0 0 13.515 50.565"><defs><style>.cls-1{fill:#ea9f9e;}.cls-2{fill:#e2eeed;}</style></defs><title>par</title><path class="cls-1" d="M18.8,47.988a27.182,27.182,0,0,0-2.522-2.254A7.4,7.4,0,0,1,13.8,43.691c-.714-1.071-1.14-4.676-1.5-8.144a34.073,34.073,0,0,1,1.151-11.538c1.41-4.458,4.4-10.48,5.368-13.01s.345-3.755-.667-4.979c-1.191-1.436-3.272-1.355-5.105,2.1A72.351,72.351,0,0,0,7.393,23.167,36.265,36.265,0,0,0,6.74,35.035a42.312,42.312,0,0,0,2.47,9.954c.322.954.326,1.741.727,3.632a11.984,11.984,0,0,0,2.41,5.171c1.089,1.194,1.671,1.453,2.008,1.338.425-.143.435-.569,0-1.171a9.861,9.861,0,0,1-1.747-3.052s.886,1.366,1.489,2.136a9.717,9.717,0,0,0,1.856,1.821c.683.49,1.858.075,1.434-.543s-.918-.982-1.794-2.136a9.665,9.665,0,0,1-1.171-1.975,18.229,18.229,0,0,0,2.056,2.045A4.073,4.073,0,0,0,18.522,53.3c.4.067,1-.382.371-1.08a14.738,14.738,0,0,1-2.433-2.538c-.646-.99-.965-1.778-.731-1.745s.574.641,1.47,1.149c.857.485,1.987.451,2.221-.051S19.6,48.623,18.8,47.988Z" transform="translate(-6.081 -4.59)"/><path class="cls-2" d="M16.683,4.6c-1.936.335-3.851,2.457-6.293,8.536S6.578,24.084,6.185,28.528A33.011,33.011,0,0,0,8.673,43.942a6.783,6.783,0,0,1,4.645-2.235s-1.026-7.625-.658-11.865,2.459-9.637,4.023-12.881,3.236-5.855,2.858-8.676S17.417,4.474,16.683,4.6Z" transform="translate(-6.081 -4.59)"/></svg>