<svg id="Layer_1" data-name="Layer 1" xmlns="http://www.w3.org/2000/svg" viewBox="0 0 165.531 160.864"><defs><style>.cls-1{opacity:0.7;}.cls-2{fill:#63bbd2;}.cls-3{fill:#2daaaf;}.cls-4{fill:#6ebbb4;}</style></defs><title>smart-buliding-board2</title><g class="cls-1"><polygon class="cls-2" points="111.214 104.459 111.221 106.576 88.266 119.829 88.261 117.711 111.214 104.459"/><polygon class="cls-2" points="159.352 82.5 159.394 97.622 126.765 116.46 126.722 101.339 159.352 82.5"/><path class="cls-3" d="M128.369,104.047l38.443-22.195.092,33.6-38.441,22.194Zm36-1.929L164.331,87,131.7,105.835l.043,15.121,32.629-18.838Z" transform="translate(-4.979 -4.496)"/><polygon class="cls-3" points="161.814 71.32 161.821 73.864 123.378 96.058 123.371 93.514 161.814 71.32"/><polygon class="cls-2" points="111.268 123.526 111.311 138.522 88.355 151.775 88.313 136.779 111.268 123.526"/><path class="cls-3" d="M90.709,109.237l29.319-16.926.145,51.62L90.855,160.856Zm25.581,33.781-.043-15L93.292,141.275l.043,15,22.955-13.252Zm-.119-42.43-.009-2.123L93.209,111.718l.007,2.121,22.955-13.251Zm.029,10.484-.007-2.117L93.24,122.207l.006,2.118L116.2,111.072Zm.014,4.768-.007-2.117L93.252,126.976l.006,2.117,22.956-13.253Zm-.031-10.488-.006-2.118L93.225,116.488l0,2.117,22.954-13.253Z" transform="translate(-4.979 -4.496)"/><g class="cls-1"><path class="cls-2" d="M87.64,100.486l82.689-47.741.181,64.875L87.823,165.36Zm32.533,43.445-.145-51.62L90.709,109.237l.146,51.619,29.318-16.925ZM166.9,115.45l-.092-33.6-38.443,22.195.094,33.6L166.9,115.45Zm-.15-52.982-.017-5.719L89.58,101.3l.015,5.719,77.159-44.548Zm.015,5.4,0-2.544L128.321,87.521l.009,2.543,38.439-22.193Zm.015,4.768-.007-2.543L128.333,92.29l.009,2.543,38.442-22.194Zm.016,5.72-.007-2.543L128.35,98.01l.007,2.544,38.443-22.2Z" transform="translate(-4.979 -4.496)"/></g><polygon class="cls-3" points="161.798 65.601 161.805 68.144 123.363 90.337 123.354 87.795 161.798 65.601"/><polygon class="cls-2" points="85.718 100.294 127.618 76.102 127.611 73.403 85.71 97.593 85.718 100.294"/><path class="cls-4" d="M166.754,62.468l-.017-5.719L89.58,101.3l.015,5.719Zm-1.533-3.408.008,2.7-16.591,9.578-.009-2.7,16.592-9.577ZM132.59,77.9l.007,2.7L90.7,104.79l-.008-2.7,41.9-24.19Z" transform="translate(-4.979 -4.496)"/><polygon class="cls-2" points="160.242 54.563 160.25 57.263 143.659 66.842 143.65 64.142 160.242 54.563"/><polygon class="cls-3" points="161.785 60.832 161.79 63.375 123.351 85.569 123.342 83.026 161.785 60.832"/><polygon class="cls-2" points="111.228 109.227 111.235 111.345 88.279 124.598 88.272 122.48 111.228 109.227"/><polygon class="cls-2" points="111.198 98.738 111.204 100.856 88.25 114.109 88.245 111.992 111.198 98.738"/><polygon class="cls-2" points="111.183 93.97 111.192 96.092 88.236 109.344 88.23 107.223 111.183 93.97"/><polygon class="cls-2" points="30.318 56.209 30.324 58.327 7.37 71.58 7.364 69.462 30.318 56.209"/><polygon class="cls-2" points="78.455 34.251 78.498 49.373 45.868 68.211 45.826 53.09 78.455 34.251"/><path class="cls-3" d="M47.472,55.8,85.915,33.6l.092,33.6L47.567,89.394Zm36-1.93-.041-15.122L50.805,57.585l.043,15.122L83.476,53.868Z" transform="translate(-4.979 -4.496)"/><polygon class="cls-3" points="80.918 23.071 80.924 25.614 42.482 47.809 42.474 45.265 80.918 23.071"/><polygon class="cls-2" points="30.372 75.276 30.414 90.273 7.459 103.525 7.416 88.53 30.372 75.276"/><path class="cls-3" d="M9.812,60.987l29.32-16.925.145,51.619L9.959,112.607ZM35.394,94.768l-.043-15L12.4,93.026l.043,15L35.394,94.768Zm-.119-42.43-.01-2.122L12.313,63.469l.006,2.121L35.275,52.338ZM35.3,62.822,35.3,60.705,12.344,73.957l.005,2.119L35.3,62.822Zm.014,4.769-.006-2.118L12.355,78.726l.007,2.118L35.317,67.591ZM35.286,57.1l-.006-2.118L12.328,68.238l.005,2.118L35.286,57.1Z" transform="translate(-4.979 -4.496)"/><g class="cls-1"><path class="cls-2" d="M6.744,52.237,89.432,4.5l.182,64.874L6.927,117.11ZM39.277,95.681l-.145-51.619L9.812,60.987l.147,51.62L39.277,95.681ZM86.007,67.2l-.092-33.6L47.472,55.8l.095,33.6L86.007,67.2Zm-.15-52.981L85.84,8.5,8.683,53.048,8.7,58.767,85.857,14.219Zm.016,5.4-.005-2.544L47.425,39.272l.009,2.543L85.873,19.622Zm.015,4.768-.008-2.543L47.437,44.041l.009,2.542L85.888,24.39Zm.015,5.72L85.9,27.566,47.454,49.76l.007,2.545L85.9,30.11Z" transform="translate(-4.979 -4.496)"/></g><polygon class="cls-3" points="80.901 17.351 80.908 19.894 42.467 42.088 42.457 39.545 80.901 17.351"/><polygon class="cls-2" points="4.821 52.045 46.721 27.852 46.714 25.153 4.813 49.344 4.821 52.045"/><path class="cls-4" d="M85.857,14.219,85.84,8.5,8.683,53.048,8.7,58.767ZM84.325,10.81l.007,2.7-16.59,9.579-.009-2.7L84.325,10.81ZM51.693,29.649l.008,2.7L9.8,56.54l-.008-2.7,41.9-24.19Z" transform="translate(-4.979 -4.496)"/><polygon class="cls-2" points="79.345 6.314 79.353 9.013 62.763 18.592 62.753 15.892 79.345 6.314"/><polygon class="cls-3" points="80.889 12.582 80.893 15.126 42.455 37.319 42.445 34.776 80.889 12.582"/><polygon class="cls-2" points="30.331 60.978 30.338 63.095 7.383 76.348 7.376 74.231 30.331 60.978"/><polygon class="cls-2" points="30.301 50.489 30.307 52.607 7.354 65.86 7.349 63.742 30.301 50.489"/><polygon class="cls-2" points="30.286 45.72 30.295 47.843 7.34 61.094 7.333 58.973 30.286 45.72"/><polygon class="cls-2" points="54.317 104.459 54.31 106.576 77.264 119.829 77.27 117.711 54.317 104.459"/><polygon class="cls-2" points="6.179 82.5 6.136 97.622 38.766 116.46 38.809 101.339 6.179 82.5"/><path class="cls-3" d="M47.026,137.644,8.586,115.45l.092-33.6,38.443,22.195ZM11.117,102.118l32.628,18.838.043-15.121L11.158,87l-.041,15.122Z" transform="translate(-4.979 -4.496)"/><polygon class="cls-3" points="3.717 71.32 3.71 73.864 42.153 96.058 42.16 93.514 3.717 71.32"/><polygon class="cls-2" points="54.263 123.526 54.22 138.522 77.175 151.775 77.218 136.779 54.263 123.526"/><path class="cls-3" d="M84.634,160.856,55.316,143.931l.145-51.62,29.32,16.926ZM59.2,143.018,82.155,156.27l.043-15L59.242,128.022l-.043,15Zm.119-42.43,22.956,13.251.006-2.121L59.328,98.465l-.01,2.123Zm-.029,10.484,22.955,13.253,0-2.118L59.3,108.955l-.007,2.117Zm-.014,4.768,22.956,13.253.007-2.117L59.282,113.723l-.007,2.117Zm.031-10.488L82.26,118.605l0-2.117L59.312,103.234l-.006,2.118Z" transform="translate(-4.979 -4.496)"/><g class="cls-1"><path class="cls-2" d="M87.666,165.36,4.979,117.62l.182-64.875,82.688,47.741Zm-32.35-21.429,29.318,16.925.147-51.619L55.461,92.311l-.145,51.62ZM8.586,115.45l38.44,22.194.095-33.6L8.678,81.852l-.092,33.6Zm.15-52.982L85.9,107.016l.015-5.719L8.753,56.749l-.017,5.719Zm-.016,5.4L47.159,90.064l.009-2.543L8.725,65.327l0,2.544Zm-.015,4.768L47.147,94.833l.009-2.543L8.713,70.1l-.008,2.543Zm-.015,5.72,38.442,22.2.007-2.544L8.7,75.816,8.69,78.359Z" transform="translate(-4.979 -4.496)"/></g><polygon class="cls-3" points="3.733 65.601 3.726 68.144 42.168 90.337 42.177 87.795 3.733 65.601"/><polygon class="cls-2" points="79.813 100.294 37.913 76.102 37.92 73.403 79.821 97.593 79.813 100.294"/><path class="cls-4" d="M85.9,107.016l.015-5.719L8.753,56.749l-.017,5.719ZM10.268,59.06,26.86,68.637l-.009,2.7-16.59-9.578.007-2.7ZM42.9,77.9l41.9,24.19-.008,2.7L42.892,80.6l.008-2.7Z" transform="translate(-4.979 -4.496)"/><polygon class="cls-2" points="5.289 54.563 5.281 57.263 21.872 66.842 21.881 64.142 5.289 54.563"/><polygon class="cls-3" points="3.746 60.832 3.741 63.375 42.18 85.569 42.189 83.026 3.746 60.832"/><polygon class="cls-2" points="54.303 109.227 54.296 111.345 77.252 124.598 77.258 122.48 54.303 109.227"/><polygon class="cls-2" points="54.333 98.738 54.327 100.856 77.281 114.109 77.285 111.992 54.333 98.738"/><polygon class="cls-2" points="54.348 93.97 54.339 96.092 77.295 109.344 77.301 107.223 54.348 93.97"/><polygon class="cls-2" points="136.271 56.839 136.265 58.956 159.219 72.209 159.225 70.091 136.271 56.839"/><polygon class="cls-2" points="88.133 34.88 88.091 50.002 120.72 68.84 120.763 53.719 88.133 34.88"/><path class="cls-3" d="M128.98,90.024,90.54,67.83l.092-33.6,38.443,22.2ZM93.071,54.5,125.7,73.336l.042-15.122L93.113,39.376,93.071,54.5Z" transform="translate(-4.979 -4.496)"/><polygon class="cls-3" points="85.671 23.7 85.665 26.244 124.107 48.438 124.114 45.894 85.671 23.7"/><polygon class="cls-2" points="136.217 75.906 136.175 90.902 159.13 104.154 159.173 89.159 136.217 75.906"/><path class="cls-3" d="M166.588,113.236,137.271,96.31l.145-51.619,29.319,16.925ZM141.154,95.4l22.955,13.252.043-15L141.2,80.4l-.042,15Zm.119-42.431,22.955,13.252.007-2.121L141.282,50.845l-.009,2.122Zm-.029,10.485L164.2,76.705l.006-2.118L141.25,61.334l-.006,2.118Zm-.014,4.768,22.956,13.253.006-2.117L141.237,66.1l-.007,2.117Zm.031-10.488,22.953,13.253,0-2.118L141.267,55.614l-.006,2.118Z" transform="translate(-4.979 -4.496)"/><g class="cls-1"><path class="cls-2" d="M169.621,117.739,86.934,70l.181-64.875L169.8,52.866ZM137.271,96.31l29.317,16.926.147-51.62L137.416,44.691l-.145,51.619ZM90.54,67.83l38.44,22.194.095-33.6L90.632,34.232l-.092,33.6Zm.15-52.982L167.849,59.4l.015-5.719L90.707,9.129l-.017,5.719Zm-.015,5.4,38.438,22.193.01-2.543L90.679,17.707l0,2.544Zm-.015,4.768L129.1,47.213l.009-2.543L90.667,22.476l-.007,2.543Zm-.016,5.72,38.442,22.195.008-2.544L90.651,28.2l-.007,2.543Z" transform="translate(-4.979 -4.496)"/></g><polygon class="cls-3" points="85.688 17.981 85.68 20.524 124.122 42.717 124.132 40.174 85.688 17.981"/><polygon class="cls-2" points="161.768 52.674 119.867 28.481 119.875 25.783 161.776 49.973 161.768 52.674"/><path class="cls-4" d="M167.849,59.4l.015-5.719L90.707,9.129l-.017,5.719ZM92.223,11.439l16.592,9.578-.01,2.7-16.59-9.579.008-2.7Zm32.631,18.839,41.9,24.191-.008,2.7-41.9-24.193.007-2.7Z" transform="translate(-4.979 -4.496)"/><polygon class="cls-2" points="87.244 6.943 87.236 9.643 103.826 19.221 103.835 16.521 87.244 6.943"/><polygon class="cls-3" points="85.7 13.212 85.696 15.755 124.134 37.949 124.143 35.406 85.7 13.212"/><polygon class="cls-2" points="136.257 61.607 136.251 63.724 159.206 76.978 159.213 74.86 136.257 61.607"/><polygon class="cls-2" points="136.288 51.118 136.282 53.236 159.235 66.489 159.24 64.372 136.288 51.118"/><polygon class="cls-2" points="136.303 46.35 136.294 48.472 159.249 61.723 159.256 59.603 136.303 46.35"/></g></svg>