<svg id="Layer_1" data-name="Layer 1" xmlns="http://www.w3.org/2000/svg" xmlns:xlink="http://www.w3.org/1999/xlink" viewBox="0 0 46.16 43.679"><defs><style>.cls-1{fill:#f6bbc1;}.cls-2{fill:none;}.cls-3{isolation:isolate;}.cls-4{clip-path:url(#clip-path);}.cls-5{fill:#fad2b9;}.cls-6{fill:#f6bbbb;}.cls-7{clip-path:url(#clip-path-2);}.cls-8{fill:#e8456a;}.cls-9{clip-path:url(#clip-path-3);}.cls-10{clip-path:url(#clip-path-4);}.cls-11{clip-path:url(#clip-path-5);}</style><clipPath id="clip-path" transform="translate(-5.175 -2.544)"><path class="cls-1" d="M27.551,34.35l-3.934,2.29a2.7,2.7,0,0,1,2.719.266l3.934-2.289A2.691,2.691,0,0,0,27.551,34.35Z"/></clipPath><clipPath id="clip-path-2" transform="translate(-5.175 -2.544)"><path class="cls-2" d="M29.027,45.964l3.934-2.289a2.682,2.682,0,0,0,1.115-2.455,8.406,8.406,0,0,0-3.806-6.6l-3.934,2.289a8.409,8.409,0,0,1,3.806,6.6A2.679,2.679,0,0,1,29.027,45.964Z"/></clipPath><clipPath id="clip-path-3" transform="translate(-5.175 -2.544)"><path class="cls-2" d="M26.27,28.1l3.934-2.29a11.842,11.842,0,0,0-4.851-1.663,6.567,6.567,0,0,0-3.952.819l-3.934,2.29a6.567,6.567,0,0,1,3.952-.82A11.845,11.845,0,0,1,26.27,28.1Z"/></clipPath><clipPath id="clip-path-4" transform="translate(-5.175 -2.544)"><path class="cls-2" d="M35.008,41.7l3.934-2.289c1.043-.577,1.061-2.493.042-4.28a28.993,28.993,0,0,0-3.934-5.379A21.4,21.4,0,0,0,30.2,25.807L26.27,28.1a21.368,21.368,0,0,1,4.846,3.943,29,29,0,0,1,3.934,5.38C36.069,39.207,36.051,41.123,35.008,41.7Z"/></clipPath><clipPath id="clip-path-5" transform="translate(-5.175 -2.544)"><path class="cls-2" d="M40.98,38.291,44.914,36c1.039-.582,1.051-2.5.027-4.288a48.569,48.569,0,0,0-6.6-8.99,35.9,35.9,0,0,0-8.111-6.592L26.3,18.42a35.889,35.889,0,0,1,8.112,6.593,48.619,48.619,0,0,1,6.6,8.99C42.032,35.788,42.019,37.708,40.98,38.291Z"/></clipPath></defs><title>smart-buliding-wifi</title><g class="cls-3"><g class="cls-3"><path class="cls-1" d="M27.551,34.35l-3.934,2.29a2.7,2.7,0,0,1,2.719.266l3.934-2.289A2.691,2.691,0,0,0,27.551,34.35Z" transform="translate(-5.175 -2.544)"/><g class="cls-4"><path class="cls-5" d="M26.336,36.906l3.934-2.289a3.105,3.105,0,0,0-2.156-.481l-3.934,2.29a3.109,3.109,0,0,1,2.156.48Z" transform="translate(-5.175 -2.544)"/><path class="cls-6" d="M24.18,36.426l3.934-2.29a1.876,1.876,0,0,0-.563.214l-3.934,2.29a1.876,1.876,0,0,1,.563-.214Z" transform="translate(-5.175 -2.544)"/></g></g><g class="cls-3"><g class="cls-7"><path class="cls-5" d="M33.137,37.776a9.233,9.233,0,0,0-1.062-1.592,6.909,6.909,0,0,0-1.805-1.567l-3.934,2.289a6.91,6.91,0,0,1,1.8,1.568A9.138,9.138,0,0,1,29.2,40.066a7.579,7.579,0,0,1,.94,3.444,2.681,2.681,0,0,1-1.116,2.454l3.934-2.289a2.684,2.684,0,0,0,1.116-2.455A7.583,7.583,0,0,0,33.137,37.776Z" transform="translate(-5.175 -2.544)"/></g></g><path class="cls-8" d="M26.336,36.906c-2.111-1.219-3.826-.24-3.833,2.186A8.408,8.408,0,0,0,26.31,45.7c2.109,1.219,3.826.24,3.832-2.188A8.409,8.409,0,0,0,26.336,36.906Z" transform="translate(-5.175 -2.544)"/><g class="cls-3"><g class="cls-9"><path class="cls-5" d="M25.353,24.144a7.276,7.276,0,0,0-2.114.114,6.036,6.036,0,0,0-1.838.705l-3.934,2.29a6.01,6.01,0,0,1,1.838-.705,7.275,7.275,0,0,1,2.114-.115A11.845,11.845,0,0,1,26.27,28.1l3.934-2.29A11.857,11.857,0,0,0,25.353,24.144Z" transform="translate(-5.175 -2.544)"/></g></g><g class="cls-3"><g class="cls-10"><path class="cls-5" d="M39.089,35.32c-.034-.063-.069-.127-.1-.19a29.513,29.513,0,0,0-2.94-4.251q-.484-.581-.994-1.128A21.374,21.374,0,0,0,30.2,25.807L26.27,28.1a21.347,21.347,0,0,1,4.846,3.943q.508.546.993,1.128A29.449,29.449,0,0,1,35.05,37.42c.036.063.071.127.105.191.911,1.73.859,3.532-.147,4.088l3.934-2.289C39.948,38.854,40,37.052,39.089,35.32Z" transform="translate(-5.175 -2.544)"/></g></g><path class="cls-8" d="M26.27,28.1a11.845,11.845,0,0,0-4.851-1.664,6.567,6.567,0,0,0-3.952.82c-1.026.6-1.018,2.536.017,4.313a5.341,5.341,0,0,0,1.85,1.943,1.869,1.869,0,0,0,1.884.182,3.752,3.752,0,0,1,2.263-.47,6.754,6.754,0,0,1,2.772.951,12.22,12.22,0,0,1,2.769,2.253,16.6,16.6,0,0,1,2.254,3.081A5.376,5.376,0,0,0,33.155,41.5a1.885,1.885,0,0,0,1.853.2c1.043-.576,1.061-2.492.042-4.279a29,29,0,0,0-3.934-5.38A21.368,21.368,0,0,0,26.27,28.1Z" transform="translate(-5.175 -2.544)"/><path class="cls-5" d="M22.11,13.337a13.036,13.036,0,0,0-1.836-.036c-.222.011-.428.057-.644.081-.366.039-.736.067-1.087.139l-.026,0a10.527,10.527,0,0,0-1.073.314c-.163.052-.335.084-.494.144a9.877,9.877,0,0,0-1.469.7l-3.934,2.289a9.961,9.961,0,0,1,1.468-.7c.175-.067.365-.1.545-.159a10.349,10.349,0,0,1,1.048-.3,11.211,11.211,0,0,1,1.178-.151c.186-.019.362-.06.551-.07a13.232,13.232,0,0,1,1.839.037A19.947,19.947,0,0,1,26.3,18.42l3.935-2.289A19.959,19.959,0,0,0,22.11,13.337Z" transform="translate(-5.175 -2.544)"/><path class="cls-8" d="M26.3,18.42a19.948,19.948,0,0,0-8.12-2.793,11.051,11.051,0,0,0-6.63,1.341c-1.029.6-1.028,2.527,0,4.306a5.373,5.373,0,0,0,1.857,1.955,1.871,1.871,0,0,0,1.877.185,8.263,8.263,0,0,1,4.943-1A14.854,14.854,0,0,1,26.28,24.5a26.693,26.693,0,0,1,6.046,4.91,36.351,36.351,0,0,1,4.921,6.707A5.377,5.377,0,0,0,39.12,38.1a1.882,1.882,0,0,0,1.86.194c1.039-.583,1.052-2.5.028-4.288a48.619,48.619,0,0,0-6.6-8.99A35.889,35.889,0,0,0,26.3,18.42Z" transform="translate(-5.175 -2.544)"/><g class="cls-3"><g class="cls-11"><path class="cls-5" d="M45.054,31.918c-.036-.069-.074-.137-.113-.2a49.375,49.375,0,0,0-4.889-7.052q-.831-1-1.709-1.938a35.9,35.9,0,0,0-8.111-6.592L26.3,18.42a35.889,35.889,0,0,1,8.112,6.593q.876.936,1.709,1.937A49.385,49.385,0,0,1,41.007,34c.039.068.077.136.113.2.909,1.724.859,3.523-.14,4.083L44.914,36C45.914,35.441,45.964,33.643,45.054,31.918Z" transform="translate(-5.175 -2.544)"/></g></g><path class="cls-8" d="M26.325,8.772A27.628,27.628,0,0,0,15.108,4.907,15.311,15.311,0,0,0,5.949,6.748c-1.032.594-1.033,2.521,0,4.3a5.346,5.346,0,0,0,1.858,1.958A1.868,1.868,0,0,0,9.68,13.2a12.5,12.5,0,0,1,7.477-1.5,22.473,22.473,0,0,1,9.15,3.155,40.415,40.415,0,0,1,9.141,7.42A54.877,54.877,0,0,1,42.889,32.4a5.4,5.4,0,0,0,1.871,1.98,1.885,1.885,0,0,0,1.863.192c1.037-.586,1.048-2.506.023-4.29a67.244,67.244,0,0,0-9.119-12.41A49.584,49.584,0,0,0,26.325,8.772Z" transform="translate(-5.175 -2.544)"/><path class="cls-5" d="M51.276,30.14a4.468,4.468,0,0,0-.11-.734c-.048-.178-.14-.357-.21-.539A5.771,5.771,0,0,0,50.7,28.2c-.037-.069-.075-.139-.115-.208-.878-1.529-1.833-3.01-2.821-4.464-.238-.35-.476-.7-.72-1.041-1.007-1.426-2.049-2.819-3.15-4.145-.017-.02-.032-.043-.048-.063q-1.16-1.39-2.38-2.7a49.66,49.66,0,0,0-11.2-9.1A27.61,27.61,0,0,0,19.042,2.618,18.121,18.121,0,0,0,16.5,2.566c-.284.015-.549.074-.828.1-.529.054-1.064.1-1.571.2-.014,0-.029,0-.043.006a14.3,14.3,0,0,0-1.4.407c-.247.078-.508.127-.748.218a13.843,13.843,0,0,0-2.026.956L5.949,6.748a13.746,13.746,0,0,1,2.026-.957c.237-.089.494-.137.738-.214a14.466,14.466,0,0,1,1.454-.417,16.306,16.306,0,0,1,1.621-.208c.261-.026.509-.082.776-.1a18.146,18.146,0,0,1,2.544.051A27.628,27.628,0,0,1,26.325,8.772a49.605,49.605,0,0,1,11.2,9.1q1.246,1.333,2.429,2.762c1.1,1.324,2.142,2.717,3.148,4.14q.366.519.722,1.045c.987,1.453,1.942,2.934,2.82,4.463a5.888,5.888,0,0,1,.377.879c.068.179.161.36.209.535a4.412,4.412,0,0,1,.111.747,4.057,4.057,0,0,1,.057.473,2.53,2.53,0,0,1-.129.668,2.4,2.4,0,0,1-.074.334,1.394,1.394,0,0,1-.574.654l3.934-2.289a1.394,1.394,0,0,0,.574-.654,2.318,2.318,0,0,0,.075-.34,2.533,2.533,0,0,0,.128-.662A4.261,4.261,0,0,0,51.276,30.14Z" transform="translate(-5.175 -2.544)"/></g></svg>