<svg id="Layer_1" data-name="Layer 1" xmlns="http://www.w3.org/2000/svg" viewBox="0 0 14.217 23.146"><defs><style>.cls-1{fill:#c9191f;}</style></defs><title>smartship_wifi</title><path class="cls-1" d="M10.7,4.464c3.925-2.266,7.116-.448,7.129,4.068.012,4.164-6.015,16.12-6.945,17.944a.327.327,0,0,1-.121.138.1.1,0,0,1-.122,0C9.707,25.87,3.627,20.9,3.615,16.74A15.61,15.61,0,0,1,10.7,4.464Zm.032,11.383a6.136,6.136,0,0,0,2.787-4.827c-.005-1.776-1.259-2.5-2.8-1.6a6.157,6.157,0,0,0-2.792,4.836c0,1.776,1.264,2.488,2.81,1.595" transform="translate(-3.615 -3.489)"/></svg>