<svg id="Layer_1" data-name="Layer 1" xmlns="http://www.w3.org/2000/svg" xmlns:xlink="http://www.w3.org/1999/xlink" viewBox="0 0 37.019 35.029"><defs><style>.cls-1{fill:#efb7bd;}.cls-2{fill:none;}.cls-3{isolation:isolate;}.cls-4{clip-path:url(#clip-path);}.cls-5{fill:#f5ceb6;}.cls-6{fill:#efb8b7;}.cls-7{clip-path:url(#clip-path-2);}.cls-8{fill:#d94565;}.cls-9{clip-path:url(#clip-path-3);}.cls-10{clip-path:url(#clip-path-4);}.cls-11{clip-path:url(#clip-path-5);}</style><clipPath id="clip-path" transform="translate(-6.153 -4.443)"><path class="cls-1" d="M24.1,29.951l-3.155,1.836a2.16,2.16,0,0,1,2.18.214l3.155-1.836A2.155,2.155,0,0,0,24.1,29.951Z"/></clipPath><clipPath id="clip-path-2" transform="translate(-6.153 -4.443)"><path class="cls-2" d="M25.282,39.265l3.155-1.836a2.15,2.15,0,0,0,.894-1.968,6.742,6.742,0,0,0-3.053-5.3L23.123,32a6.742,6.742,0,0,1,3.053,5.3A2.15,2.15,0,0,1,25.282,39.265Z"/></clipPath><clipPath id="clip-path-3" transform="translate(-6.153 -4.443)"><path class="cls-2" d="M23.07,24.936,26.225,23.1a9.48,9.48,0,0,0-3.89-1.334,5.258,5.258,0,0,0-3.169.657l-3.155,1.836A5.267,5.267,0,0,1,19.18,23.6,9.475,9.475,0,0,1,23.07,24.936Z"/></clipPath><clipPath id="clip-path-4" transform="translate(-6.153 -4.443)"><path class="cls-2" d="M30.078,35.844l3.155-1.836c.836-.462.851-2,.034-3.432a23.231,23.231,0,0,0-3.155-4.314A17.129,17.129,0,0,0,26.225,23.1L23.07,24.936A17.129,17.129,0,0,1,26.957,28.1a23.239,23.239,0,0,1,3.155,4.315C30.929,33.846,30.914,35.383,30.078,35.844Z"/></clipPath><clipPath id="clip-path-5" transform="translate(-6.153 -4.443)"><path class="cls-2" d="M34.867,33.111l3.155-1.837c.834-.466.844-2.006.023-3.438a39.047,39.047,0,0,0-5.292-7.21,28.814,28.814,0,0,0-6.5-5.287l-3.155,1.836a28.814,28.814,0,0,1,6.5,5.287,39.055,39.055,0,0,1,5.292,7.211C35.711,31.1,35.7,32.644,34.867,33.111Z"/></clipPath></defs><title>wire-rope-wifi</title><g class="cls-3"><g class="cls-3"><path class="cls-1" d="M24.1,29.951l-3.155,1.836a2.16,2.16,0,0,1,2.18.214l3.155-1.836A2.155,2.155,0,0,0,24.1,29.951Z" transform="translate(-6.153 -4.443)"/><g class="cls-4"><path class="cls-5" d="M23.123,32l3.155-1.836a2.5,2.5,0,0,0-1.728-.386L21.4,31.616A2.488,2.488,0,0,1,23.123,32Z" transform="translate(-6.153 -4.443)"/><path class="cls-6" d="M21.4,31.616l3.155-1.837a1.523,1.523,0,0,0-.452.172l-3.155,1.836a1.494,1.494,0,0,1,.452-.171Z" transform="translate(-6.153 -4.443)"/></g></g><g class="cls-3"><g class="cls-7"><path class="cls-5" d="M28.578,32.7a7.406,7.406,0,0,0-.852-1.276,5.512,5.512,0,0,0-1.448-1.257L23.123,32a5.544,5.544,0,0,1,1.448,1.257,7.32,7.32,0,0,1,.852,1.277,6.063,6.063,0,0,1,.753,2.762,2.15,2.15,0,0,1-.894,1.968l3.155-1.836a2.15,2.15,0,0,0,.894-1.968A6.07,6.07,0,0,0,28.578,32.7Z" transform="translate(-6.153 -4.443)"/></g></g><path class="cls-8" d="M23.123,32c-1.692-.978-3.068-.193-3.074,1.753a6.747,6.747,0,0,0,3.054,5.3c1.691.977,3.068.192,3.073-1.755A6.742,6.742,0,0,0,23.123,32Z" transform="translate(-6.153 -4.443)"/><g class="cls-3"><g class="cls-9"><path class="cls-5" d="M22.335,21.766a5.868,5.868,0,0,0-1.7.091,4.841,4.841,0,0,0-1.474.566l-3.155,1.836a4.814,4.814,0,0,1,1.474-.565,5.833,5.833,0,0,1,1.7-.092,9.48,9.48,0,0,1,3.89,1.334L26.225,23.1A9.48,9.48,0,0,0,22.335,21.766Z" transform="translate(-6.153 -4.443)"/></g></g><g class="cls-3"><g class="cls-10"><path class="cls-5" d="M33.351,30.729q-.041-.076-.084-.153a23.628,23.628,0,0,0-2.358-3.409q-.389-.466-.8-.905A17.129,17.129,0,0,0,26.225,23.1L23.07,24.936A17.129,17.129,0,0,1,26.957,28.1q.408.438.8.905a23.564,23.564,0,0,1,2.359,3.41q.043.077.084.153c.731,1.388.689,2.833-.118,3.278l3.155-1.836C34.04,33.563,34.082,32.118,33.351,30.729Z" transform="translate(-6.153 -4.443)"/></g></g><path class="cls-8" d="M23.07,24.936A9.475,9.475,0,0,0,19.18,23.6a5.267,5.267,0,0,0-3.169.657c-.823.484-.817,2.034.013,3.459a4.292,4.292,0,0,0,1.484,1.558,1.5,1.5,0,0,0,1.511.146,3.02,3.02,0,0,1,1.815-.377,5.438,5.438,0,0,1,2.223.763,9.792,9.792,0,0,1,2.221,1.807,13.339,13.339,0,0,1,1.807,2.471,4.327,4.327,0,0,0,1.507,1.6,1.511,1.511,0,0,0,1.486.158c.836-.461.851-2,.034-3.431A23.239,23.239,0,0,0,26.957,28.1,17.129,17.129,0,0,0,23.07,24.936Z" transform="translate(-6.153 -4.443)"/><path class="cls-5" d="M19.735,13.1a10.431,10.431,0,0,0-1.473-.029c-.178.009-.343.046-.517.065-.293.031-.59.054-.871.112l-.021,0a8.448,8.448,0,0,0-.861.251c-.13.042-.269.068-.4.116a7.94,7.94,0,0,0-1.178.559l-3.155,1.836a7.929,7.929,0,0,1,1.177-.559c.141-.053.293-.082.438-.127a8.281,8.281,0,0,1,.84-.242,9.047,9.047,0,0,1,.944-.121c.149-.015.291-.048.443-.056a10.456,10.456,0,0,1,1.475.029,16,16,0,0,1,6.512,2.24l3.156-1.836A16.014,16.014,0,0,0,19.735,13.1Z" transform="translate(-6.153 -4.443)"/><path class="cls-8" d="M23.093,17.175a16.014,16.014,0,0,0-6.513-2.24,8.873,8.873,0,0,0-5.317,1.076c-.826.479-.824,2.026,0,3.453a4.305,4.305,0,0,0,1.489,1.568,1.5,1.5,0,0,0,1.5.148,6.625,6.625,0,0,1,3.964-.8,11.9,11.9,0,0,1,4.855,1.672,21.371,21.371,0,0,1,4.848,3.938,29.141,29.141,0,0,1,3.947,5.379,4.321,4.321,0,0,0,1.5,1.59,1.507,1.507,0,0,0,1.491.155c.834-.467.844-2.007.023-3.438A39.055,39.055,0,0,0,29.6,22.462,28.814,28.814,0,0,0,23.093,17.175Z" transform="translate(-6.153 -4.443)"/><g class="cls-3"><g class="cls-11"><path class="cls-5" d="M38.135,28c-.029-.056-.059-.11-.09-.165a39.7,39.7,0,0,0-3.922-5.656q-.666-.8-1.37-1.554a28.814,28.814,0,0,0-6.5-5.287l-3.156,1.836A28.8,28.8,0,0,1,29.6,22.462q.7.752,1.37,1.554a39.649,39.649,0,0,1,3.922,5.657c.031.054.061.109.09.164.729,1.383.689,2.825-.113,3.274l3.155-1.837C38.824,30.826,38.864,29.384,38.135,28Z" transform="translate(-6.153 -4.443)"/></g></g><path class="cls-8" d="M23.114,9.438a22.147,22.147,0,0,0-9-3.1A12.283,12.283,0,0,0,6.774,7.814c-.828.477-.829,2.022,0,3.452a4.29,4.29,0,0,0,1.49,1.57,1.5,1.5,0,0,0,1.5.149,10.025,10.025,0,0,1,6-1.2,18.038,18.038,0,0,1,7.338,2.53,32.4,32.4,0,0,1,7.331,5.951A44.029,44.029,0,0,1,36.4,28.385a4.318,4.318,0,0,0,1.5,1.588,1.508,1.508,0,0,0,1.494.154c.832-.47.841-2.009.019-3.441A53.947,53.947,0,0,0,32.1,16.734,39.775,39.775,0,0,0,23.114,9.438Z" transform="translate(-6.153 -4.443)"/><path class="cls-5" d="M43.124,26.575a3.494,3.494,0,0,0-.087-.589c-.039-.143-.113-.287-.169-.433a4.627,4.627,0,0,0-.209-.536c-.03-.056-.061-.111-.093-.167-.7-1.226-1.47-2.413-2.262-3.579-.191-.281-.381-.559-.577-.836-.808-1.143-1.643-2.261-2.527-3.324-.013-.016-.025-.034-.038-.05q-.93-1.116-1.909-2.163a39.807,39.807,0,0,0-8.984-7.3,22.144,22.144,0,0,0-8.995-3.1,14.561,14.561,0,0,0-2.038-.041c-.229.012-.441.059-.665.082-.424.044-.853.079-1.26.162-.011,0-.023,0-.035,0a11.524,11.524,0,0,0-1.123.327c-.2.062-.407.1-.6.174a11.215,11.215,0,0,0-1.624.767L6.774,7.814A11.111,11.111,0,0,1,8.4,7.047c.19-.071.4-.11.592-.172a11.827,11.827,0,0,1,1.166-.334,12.749,12.749,0,0,1,1.3-.166c.21-.021.409-.067.623-.078a14.744,14.744,0,0,1,2.04.041,22.147,22.147,0,0,1,9,3.1,39.775,39.775,0,0,1,8.984,7.3c.667.713,1.316,1.454,1.949,2.215.882,1.062,1.717,2.179,2.524,3.321.2.277.388.556.579.837.791,1.166,1.558,2.354,2.262,3.579a4.818,4.818,0,0,1,.3.706c.055.143.129.288.167.429a3.621,3.621,0,0,1,.09.6,3.25,3.25,0,0,1,.045.379,2.031,2.031,0,0,1-.1.536,1.934,1.934,0,0,1-.059.267,1.125,1.125,0,0,1-.461.525l3.155-1.836a1.122,1.122,0,0,0,.461-.524,1.881,1.881,0,0,0,.059-.273,1.994,1.994,0,0,0,.1-.531A3.2,3.2,0,0,0,43.124,26.575Z" transform="translate(-6.153 -4.443)"/></g></svg>